<!-- Generated by IcoMoon.io -->
<svg version="1.1" xmlns="http://www.w3.org/2000/svg" width="32" height="32" viewBox="0 0 32 32"><title>add-friend-icon</title><path fill="none" stroke-linejoin="miter" stroke-linecap="butt" stroke-miterlimit="4" stroke-width="1.0667" stroke="#000" d="M4.267 0h23.467c2.356 0 4.267 1.91 4.267 4.267v23.467c0 2.356-1.91 4.267-4.267 4.267h-23.467c-2.356 0-4.267-1.91-4.267-4.267v-23.467c0-2.356 1.91-4.267 4.267-4.267z"></path><path fill="none" stroke-linejoin="miter" stroke-linecap="butt" stroke-miterlimit="4" stroke-width="1.0667" stroke="#000" d="M4.267 0.533h23.467c2.062 0 3.733 1.671 3.733 3.733v23.467c0 2.062-1.671 3.733-3.733 3.733h-23.467c-2.062 0-3.733-1.671-3.733-3.733v-23.467c0-2.062 1.671-3.733 3.733-3.733z"></path><path stroke-linejoin="miter" stroke-linecap="butt" stroke-miterlimit="4" stroke-width="1.0667" stroke="#000" fill="#000" d="M16.533 11.2c-0.123 0-0.222 0.099-0.222 0.222v0 4.889h-4.89c-0.123 0-0.222 0.1-0.222 0.222s0.1 0.222 0.222 0.222h4.889v4.889c0 0.123 0.1 0.222 0.222 0.222s0.222-0.1 0.222-0.222v0-4.889h4.889c0.123 0 0.222-0.1 0.222-0.222s-0.1-0.222-0.222-0.222h-4.889v-4.889c0-0.123-0.099-0.222-0.222-0.222v0z"></path></svg>
