<svg xmlns="http://www.w3.org/2000/svg" width="16.65" height="11.3" viewBox="0 0 16.65 11.3"><g id="icon" transform="translate(0.15 0.15)"><path id="Path_70" data-name="Path 70" d="M43.852,41.218a.322.322,0,0,1-.638,0c0-2.09-1.75-3.1-4.788-3.1s-4.788,1.012-4.788,3.1a.322.322,0,0,1-.638,0c0-2.464,2.079-3.667,5.426-3.667S43.852,38.754,43.852,41.218Zm-5.426-4.231c-1.659,0-2.873-1.655-2.873-3.385a2.881,2.881,0,1,1,5.745,0C41.3,35.332,40.085,36.987,38.426,36.987Zm0-.564c1.234,0,2.234-1.365,2.234-2.821a2.252,2.252,0,1,0-4.468,0C36.192,35.058,37.192,36.423,38.426,36.423Z" transform="translate(-33 -30.5)" fill="#454545" stroke="#454545" stroke-width="0.3"/><g id="plus" transform="translate(10 2.115)"><line id="Line_114" data-name="Line 114" x2="6" transform="translate(0 3)" fill="none" stroke="#3d3d3d" stroke-linecap="round" stroke-width="1"/><line id="Line_115" data-name="Line 115" y2="6" transform="translate(3)" fill="none" stroke="#3d3d3d" stroke-linecap="round" stroke-width="1"/></g></g></svg>
