<svg xmlns="http://www.w3.org/2000/svg" width="29.481" height="27.09" viewBox="0 0 29.481 27.09"><path id="Path_259" data-name="Path 259" d="M41.242,23.129a8.417,8.417,0,0,0-2.469-5.786,8.163,8.163,0,0,0-11.533-.193L14.782,29.609h0l-.231.231c-.039.039-.039.039-.039.077a6.68,6.68,0,0,0,.116,9.141,6.481,6.481,0,0,0,4.59,1.89,6.861,6.861,0,0,0,4.551-1.736.135.135,0,0,0,.077-.039L35.881,27.141a4.787,4.787,0,0,0-.116-6.711,4.947,4.947,0,0,0-3.356-1.466,4.73,4.73,0,0,0-3.317,1.311l-8.64,8.563a.382.382,0,0,0,.54.54l8.6-8.6a3.661,3.661,0,0,1,2.777-1.08,4.039,4.039,0,0,1,2.816,1.234,4.372,4.372,0,0,1,1.234,2.816,3.872,3.872,0,0,1-1.08,2.777L23.5,38.326a5.786,5.786,0,1,1-8.177-8.177L27.781,17.691a7.419,7.419,0,0,1,10.453.193,7.618,7.618,0,0,1,2.276,5.284,6.95,6.95,0,0,1-2.083,5.169L28.861,37.9a.373.373,0,0,0,0,.54.373.373,0,0,0,.54,0l9.566-9.566A7.852,7.852,0,0,0,41.242,23.129Z" transform="translate(-12.262 -14.36)" fill="#d3d8e0" stroke="#d3d8e0" stroke-width="1"/></svg>
