<svg xmlns="http://www.w3.org/2000/svg" viewBox="0 0 25.731 25.731"><path d="M19.418 13.068a6.313 6.313 0 1 0 0 12.626 6.313 6.313 0 0 0 0-12.626zm3.483 7.21h-6.978v-1.793h6.978v1.793z" fill="#030104"/><path d="M11.606 19.38c0-1.791.609-3.438 1.624-4.756-.151-.352-.21-.891.063-1.734h-.008c1.555-1.625 2.586-4.242 2.586-6.818 0-3.959-2.438-6.035-5.452-6.035-3.017 0-5.438 2.076-5.438 6.035 0 2.586 1.024 5.213 2.588 6.836.609 1.623-.48 2.225-.709 2.311C3.704 16.377 0 18.49 0 20.576v.781c0 2.842 5.427 3.488 10.45 3.488 1.102 0 2.216-.033 3.289-.111a7.782 7.782 0 0 1-2.133-5.354z" fill="#030104"/></svg>