<svg xmlns="http://www.w3.org/2000/svg" width="17.5" height="19.5" viewBox="0 0 17.5 19.5"><g transform="translate(0.25 0.25)"><path d="M10.082,1.255h0a2.582,2.582,0,0,1,0,5v10.15a.582.582,0,1,1-1.163,0V6.257a2.582,2.582,0,0,1,0-5V.593a.582.582,0,1,1,1.163,0Zm-1.939,2.5A1.357,1.357,0,1,0,9.5,2.372,1.372,1.372,0,0,0,8.143,3.756ZM3.1,10.743h0a2.582,2.582,0,0,1,0,5v.662a.582.582,0,1,1-1.163,0v-.662a2.582,2.582,0,0,1,0-5V.593A.582.582,0,1,1,3.1.593Zm-1.939,2.5A1.372,1.372,0,0,0,2.52,14.628a1.384,1.384,0,0,0,0-2.767A1.372,1.372,0,0,0,1.163,13.244Zm15.9-6.059h0a2.582,2.582,0,0,1,0,5v4.22a.582.582,0,1,1-1.163,0v-4.22a2.582,2.582,0,0,1,0-5V.593a.582.582,0,1,1,1.163,0Zm-1.939,2.5A1.357,1.357,0,1,0,16.48,8.3,1.372,1.372,0,0,0,15.122,9.686Z" transform="translate(17) rotate(90)" fill="#d3d8e0" stroke="#d3d8e0" stroke-width="0.5"/></g></svg>