<!-- Generated by IcoMoon.io -->
<svg version="1.1" xmlns="http://www.w3.org/2000/svg" width="34" height="32" viewBox="0 0 34 32">
<title>cmnt</title>
<path stroke-linejoin="miter" stroke-linecap="butt" stroke-miterlimit="4" stroke-width="1.7825" stroke="#000" fill="#000" d="M31.039 0.891h-28.036c-0.019-0.001-0.040-0.001-0.062-0.001-1.132 0-2.050 0.918-2.050 2.050 0 0.003 0 0.007 0 0.010v-0.001 20.592c0 0.003-0 0.006-0 0.010 0 1.132 0.918 2.050 2.050 2.050 0.022 0 0.044-0 0.066-0.001l-0.003 0h4.93v4.813c0.004 0.383 0.315 0.691 0.699 0.691 0.195 0 0.372-0.080 0.499-0.21l0-0 5.422-5.285h16.483c0.020 0.001 0.044 0.001 0.068 0.001 1.132 0 2.050-0.918 2.050-2.050 0-0.007-0-0.013-0-0.020v0.001-20.592c0-0.003 0-0.006 0-0.010 0-1.132-0.918-2.050-2.050-2.050-0.023 0-0.046 0-0.069 0.001l0.003-0zM31.752 23.542c0 0.009 0.001 0.020 0.001 0.031 0 0.363-0.294 0.658-0.658 0.658-0.020 0-0.039-0.001-0.058-0.003l0.003 0h-16.767c-0.006-0-0.013-0-0.019-0-0.187 0-0.356 0.080-0.474 0.207l-0 0-4.437 4.324v-3.845c0-0.009 0.001-0.020 0.001-0.031 0-0.363-0.294-0.658-0.658-0.658-0.020 0-0.039 0.001-0.058 0.003l0.002-0h-5.626c-0.017 0.002-0.036 0.002-0.056 0.002-0.363 0-0.658-0.294-0.658-0.658 0-0.011 0-0.022 0.001-0.032l-0 0.002v-20.592c-0-0.009-0.001-0.020-0.001-0.031 0-0.363 0.294-0.658 0.658-0.658 0.020 0 0.039 0.001 0.058 0.003l-0.002-0h28.036c0.017-0.002 0.036-0.002 0.056-0.002 0.363 0 0.658 0.295 0.658 0.658 0 0.011-0 0.022-0.001 0.032l0-0.002z"></path>
</svg>
