<svg xmlns="http://www.w3.org/2000/svg" width="26.853" height="24.117" viewBox="0 0 26.853 24.117"><g transform="translate(0.3 0.3)"><g transform="translate(0)"><path d="M101.767,97.5H82.486A3.5,3.5,0,0,0,79,100.993V112.4a3.5,3.5,0,0,0,3.486,3.5h6.422l2.818,4.858a.524.524,0,0,0,.9,0l2.825-4.858h6.311a3.5,3.5,0,0,0,3.486-3.5V100.986A3.491,3.491,0,0,0,101.767,97.5Zm2.447,14.884a2.462,2.462,0,0,1-2.447,2.462H95.145a.516.516,0,0,0-.452.252l-2.521,4.346L89.649,115.1a.516.516,0,0,0-.452-.252H82.486a2.462,2.462,0,0,1-2.447-2.462v-11.4a2.456,2.456,0,0,1,2.447-2.455h19.282a2.456,2.456,0,0,1,2.447,2.455Z" transform="translate(-79 -97.5)" stroke-width="0.6"/><rect width="16.464" height="1.038" transform="translate(4.895 12.378)"  stroke-width="0.6"/><rect width="16.464" height="1.038" transform="translate(4.895 8.595)"  stroke-width="0.6"/><rect width="9.27" height="1.038" transform="translate(4.895 4.813)" stroke-width="0.6"/></g></g></svg>