<svg xmlns="http://www.w3.org/2000/svg" width="19.098" height="17.952" viewBox="0 0 19.098 17.952">
  <path id="Path_94" data-name="Path 94" d="M40.913,32H25.185A1.15,1.15,0,0,0,24,33.155V44.707a1.15,1.15,0,0,0,1.185,1.155h2.766v2.7a.392.392,0,0,0,.672.27l3.042-2.965h9.247A1.15,1.15,0,0,0,42.1,44.707V33.155A1.15,1.15,0,0,0,40.913,32Zm.4,12.707a.369.369,0,0,1-.4.385H31.507a.363.363,0,0,0-.277.116l-2.489,2.426V45.477a.369.369,0,0,0-.4-.385H25.185a.369.369,0,0,1-.4-.385V33.155a.369.369,0,0,1,.4-.385H40.913a.369.369,0,0,1,.4.385Z" transform="translate(-23.5 -31.5)" fill="#3d3d3d" stroke="#707070" stroke-width="1"/>
</svg>
