<svg xmlns="http://www.w3.org/2000/svg" width="17.235" height="11.467" viewBox="0 0 17.235 11.467"><g id="noun_read_1863792" transform="translate(-4.998 -14.725)"><path id="Path_257" data-name="Path 257" d="M17.071,15.085a.687.687,0,0,0-.965.12l-7.45,9.369L6.108,22.593a.688.688,0,1,0-.845,1.085l3.091,2.4a.687.687,0,0,0,.965-.12l7.872-9.912a.687.687,0,0,0-.12-.965Z" transform="translate(0 -0.036)" fill="#d3d8e0"/><path id="Path_258" data-name="Path 258" d="M34.445,14.871a.687.687,0,0,0-.965.12l-7.546,9.558-.835-.625a.687.687,0,1,0-.824,1.1l1.374,1.03a.687.687,0,0,0,.955-.127l7.962-10.091a.687.687,0,0,0-.12-.965Z" transform="translate(-12.477 0)" fill="#d3d8e0"/></g></svg>
