<!-- Generated by IcoMoon.io -->
<svg version="1.1" xmlns="http://www.w3.org/2000/svg" width="36" height="32" viewBox="0 0 36 32"><title>like</title><path stroke-linejoin="miter" stroke-linecap="butt" stroke-miterlimit="4" stroke-width="1.7691" stroke="#000" fill="#000" d="M3.054 13.736h6.832c1.197 0.003 2.167 0.973 2.169 2.171v12.915c-0.003 1.197-0.972 2.166-2.169 2.169h-6.833c-1.198-0.003-2.168-0.974-2.169-2.172v-12.915c0.004-1.196 0.973-2.164 2.169-2.167h0zM9.884 14.797h-6.831c-0.611 0.003-1.106 0.498-1.109 1.109v12.915c0.003 0.611 0.498 1.106 1.109 1.109h6.833c0.611-0.003 1.106-0.498 1.109-1.109v-12.915c-0.003-0.611-0.498-1.106-1.109-1.109h-0z"></path><path stroke-linejoin="miter" stroke-linecap="butt" stroke-miterlimit="4" stroke-width="1.7691" stroke="#000" fill="#000" d="M11.199 14.871c-0.151 0.095-0.25 0.261-0.25 0.45 0 0.293 0.238 0.531 0.531 0.531 0.062 0 0.122-0.011 0.177-0.030l-0.004 0.001c0.023-0.011 7.276-3.37 6.215-13.746 1.467-0.267 6.165-0.373 4.129 9.944v0c-0.006 0.030-0.010 0.065-0.010 0.1 0 0.293 0.238 0.531 0.531 0.531 0.039 0 0.077-0.004 0.114-0.012l-0.003 0.001c0.872-0.111 14.523-1.769 10.153 4.934v0c-0.054 0.082-0.086 0.182-0.086 0.289 0 0.138 0.053 0.264 0.139 0.358l-0-0c0.393 0.393 0.636 0.936 0.636 1.535 0 0.896-0.542 1.665-1.317 1.997l-0.014 0.005c-0.178 0.088-0.297 0.269-0.297 0.477 0 0.067 0.012 0.131 0.035 0.19l-0.001-0.004c0.073 0.216 0.863 2.728-0.996 3.524v0c-0.19 0.084-0.32 0.27-0.32 0.487 0 0.015 0.001 0.030 0.002 0.046l-0-0.002c0 0.437-0.119 3.943-3.085 3.538v0c-0.012-0.001-0.026-0.002-0.041-0.002s-0.029 0.001-0.043 0.002l0.002-0h-12.888l-2.742-1.511c-0.082-0.055-0.184-0.088-0.293-0.088-0.293 0-0.531 0.238-0.531 0.531 0 0.215 0.128 0.4 0.311 0.483l0.003 0.001 2.831 1.557c0.080 0.051 0.178 0.081 0.282 0.081 0 0 0 0 0.001 0h13.003c3.655 0.463 4.152-3.163 4.219-4.308 0.972-0.675 1.6-1.785 1.6-3.042 0-0.439-0.077-0.86-0.217-1.251l0.008 0.026c0.962-0.521 1.604-1.522 1.604-2.674 0-0.758-0.278-1.451-0.739-1.983l0.003 0.004c4.54-7.423-7.561-6.641-10.693-6.325 2.238-12.662-5.467-10.523-5.997-10.36-0.233 0.060-0.402 0.268-0.402 0.515 0 0.022 0.001 0.045 0.004 0.066l-0-0.003c1.238 9.985-5.539 13.125-5.559 13.134z"></path></svg>
