<!-- Generated by IcoMoon.io -->
<svg version="1.1" xmlns="http://www.w3.org/2000/svg" width="37" height="32" viewBox="0 0 37 32">
<title>icon-1</title>
<path d="M33.937 0h-25.408c-0.007-0-0.014-0-0.022-0-1.733 0-3.138 1.405-3.138 3.138 0 0.006 0 0.012 0 0.018v-0.001 1.347h-2.21c-0.007-0-0.014-0-0.022-0-1.733 0-3.138 1.405-3.138 3.138 0 0.008 0 0.015 0 0.023v-0.001 20.643c-0 0.008-0 0.017-0 0.026 0 1.959 1.533 3.56 3.465 3.669l0.010 0h29.873c2.041-0.006 3.694-1.655 3.705-3.694v-25.151c0-0.017 0.001-0.036 0.001-0.056 0-1.712-1.387-3.099-3.099-3.099-0.006 0-0.012 0-0.018 0h0.001zM5.371 28.44c0 0.013 0.001 0.029 0.001 0.044 0 0.483-0.209 0.916-0.541 1.216l-0.001 0.001c-0.346 0.307-0.803 0.495-1.305 0.495-0.001 0-0.003 0-0.004 0h0c-0.962-0.074-1.715-0.873-1.715-1.848 0-0.016 0-0.032 0.001-0.048l-0 0.002v-20.642c-0-0.006-0-0.012-0-0.019 0-0.734 0.595-1.329 1.329-1.329 0.007 0 0.013 0 0.020 0h2.21zM35.293 28.305c-0.007 1.043-0.851 1.887-1.894 1.893h-26.673c0.122-0.223 0.243-0.491 0.346-0.768l0.014-0.044v-0.091c0.045-0.091 0.045-0.226 0.091-0.36v-0.091c0-0.135 0.045-0.271 0.045-0.451v-25.238c-0-0.006-0-0.012-0-0.019 0-0.734 0.595-1.329 1.329-1.329 0.007 0 0.013 0 0.020 0h25.367c0.006-0 0.012-0 0.019-0 0.734 0 1.329 0.595 1.329 1.329 0 0.007-0 0.013-0 0.020v-0.001z"></path>
<path d="M31.454 9.715h-9.049c-0.515 0-0.933 0.418-0.933 0.933s0.418 0.933 0.933 0.933h9.049c0.515 0 0.933-0.418 0.933-0.933s-0.418-0.933-0.933-0.933v0z"></path>
<path d="M31.454 14.887h-9.049c-0.515 0-0.933 0.418-0.933 0.933s0.418 0.933 0.933 0.933h9.049c0.515 0 0.933-0.418 0.933-0.933s-0.418-0.933-0.933-0.933v0z"></path>
<path d="M31.454 20.059h-21.502c-0.515 0-0.933 0.418-0.933 0.933s0.418 0.933 0.933 0.933h21.502c0.515 0 0.933-0.418 0.933-0.933s-0.418-0.933-0.933-0.933v0z"></path>
<path d="M31.454 4.664h-9.049c-0.515 0-0.933 0.418-0.933 0.933s0.418 0.933 0.933 0.933h9.049c0.515 0 0.933-0.418 0.933-0.933s-0.418-0.933-0.933-0.933v0z"></path>
<path d="M31.454 25.277h-21.502c-0.515 0-0.933 0.418-0.933 0.933s0.418 0.933 0.933 0.933v0h21.502c0.515 0 0.933-0.418 0.933-0.933s-0.418-0.933-0.933-0.933v0z"></path>
<path d="M10.742 17.304h8.209c0.515-0.002 0.931-0.419 0.933-0.933v-10.779c-0.002-0.515-0.419-0.931-0.933-0.933h-8.209c-0.515 0.002-0.931 0.418-0.933 0.933v10.779c0.002 0.515 0.418 0.931 0.933 0.933h0zM11.675 6.525h6.343v8.918h-6.343z"></path>
</svg>
