<!-- Generated by IcoMoon.io -->
<svg version="1.1" xmlns="http://www.w3.org/2000/svg" width="26" height="32" viewBox="0 0 26 32">
<title>icon-2</title>
<path d="M25.44 22.471l-1.323-2.098c-0.378-0.633-0.632-1.382-0.709-2.183l-0.002-0.022-0.574-7.36c-0.321-4.089-2.766-10.809-9.796-10.809s-9.474 6.72-9.797 10.809l-0.572 7.36c-0.098 0.822-0.349 1.568-0.726 2.234l0.015-0.029-1.323 2.098c-0.388 0.506-0.621 1.149-0.621 1.845 0 0.48 0.111 0.933 0.308 1.337l-0.008-0.018c0.569 0.849 1.524 1.4 2.608 1.4 0.1 0 0.199-0.005 0.297-0.014l-0.013 0.001h19.663c0.086 0.008 0.186 0.013 0.287 0.013 1.084 0 2.040-0.551 2.601-1.389l0.007-0.011c0.188-0.385 0.298-0.838 0.298-1.316 0-0.698-0.234-1.341-0.629-1.855l0.005 0.007zM24.511 24.96c-0.339 0.402-0.842 0.656-1.405 0.656-0.085 0-0.168-0.006-0.249-0.017l0.009 0.001h-19.697c-0.072 0.010-0.155 0.016-0.24 0.016-0.563 0-1.067-0.254-1.403-0.653l-0.002-0.003c-0.057-0.171-0.090-0.368-0.090-0.573 0-0.445 0.156-0.853 0.415-1.173l-0.003 0.003 1.323-2.098c0.477-0.819 0.806-1.783 0.926-2.81l0.003-0.035 0.572-7.36c0.286-3.591 2.081-9.493 8.366-9.493s8.081 5.902 8.366 9.493l0.572 7.36c0.123 1.062 0.453 2.025 0.948 2.88l-0.019-0.036 1.323 2.098c0.252 0.299 0.405 0.689 0.405 1.114 0 0.226-0.043 0.442-0.122 0.64l0.004-0.012zM18.039 27.322c-0.179 0.32-1.323 4.678-5.005 4.678-3.724 0-5.14-4.358-5.319-4.678-0.060-0.102-0.096-0.224-0.096-0.355 0-0.257 0.138-0.481 0.343-0.604l0.003-0.002c0.102-0.060 0.225-0.095 0.356-0.095 0.257 0 0.482 0.137 0.607 0.341l0.002 0.003c0.5 0.818 0.973 3.967 4.103 3.967 2.927 0 3.319-3.149 3.793-3.967 0.122-0.211 0.347-0.35 0.604-0.35 0.133 0 0.258 0.038 0.364 0.103l-0.003-0.002c0.217 0.113 0.362 0.336 0.362 0.593 0 0.136-0.041 0.263-0.111 0.369l0.002-0.002z"></path>
</svg>
