<!-- Generated by IcoMoon.io -->
<svg version="1.1" xmlns="http://www.w3.org/2000/svg" width="38" height="32" viewBox="0 0 38 32"><title>photo</title><path stroke-linejoin="miter" stroke-linecap="butt" stroke-miterlimit="4" stroke-width="0.4305" stroke="#000" fill="#000" d="M37.525 25.088v-18.175c-0.011-3.694-3.003-6.686-6.696-6.697h-23.916c-3.694 0.011-6.686 3.003-6.697 6.696v18.176c0.011 3.694 3.003 6.686 6.696 6.697h23.916c3.694-0.011 6.686-3.003 6.697-6.696v-0.001zM6.912 2.128h23.915c2.638 0.008 4.775 2.145 4.783 4.782v10.094l-4.543-3.922c-0.998-0.867-2.31-1.395-3.746-1.395-1.535 0-2.93 0.604-3.958 1.588l0.002-0.002-3.013 2.823-2.009-2.487c-1.063-1.293-2.663-2.111-4.454-2.111-1.093 0-2.115 0.305-2.986 0.834l0.025-0.014-8.801 5.309v-10.715c0.007-2.639 2.145-4.777 4.784-4.784h0.001zM2.13 25.088v-5.213l9.758-5.931c0.568-0.351 1.257-0.559 1.994-0.559 1.2 0 2.271 0.551 2.975 1.413l0.005 0.007 12.197 15.067h-22.147c-2.639-0.007-4.777-2.145-4.784-4.784v-0.001zM31.499 29.823l-9.95-12.245 3.11-2.966c0.681-0.641 1.6-1.036 2.612-1.036 0.962 0 1.84 0.356 2.511 0.943l-0.004-0.004 5.836 5.022v5.549c-0.004 2.405-1.778 4.394-4.090 4.732l-0.026 0.003z"></path></svg>
