<!-- Generated by IcoMoon.io -->
<svg version="1.1" xmlns="http://www.w3.org/2000/svg" width="35" height="32" viewBox="0 0 35 32">
<title>Path-69</title>
<path d="M30.526 0h-25.853c-2.587 0.029-4.674 2.133-4.674 4.725 0 0.010 0 0.020 0 0.031v-0.002 15.52c-0 0.009-0 0.020-0 0.031 0 2.593 2.085 4.699 4.671 4.732l0.003 0h8.606l3.779 6.61c0.122 0.212 0.348 0.353 0.606 0.353s0.484-0.141 0.605-0.349l0.002-0.003 3.789-6.61h8.462c2.59-0.032 4.677-2.138 4.677-4.732 0-0.011-0-0.022-0-0.032v0.002-15.531c0-0.008 0-0.018 0-0.027 0-2.59-2.087-4.692-4.671-4.715l-0.002-0zM33.808 20.253c0 0.007 0 0.016 0 0.024 0 1.821-1.464 3.301-3.279 3.326l-0.002 0h-8.88c-0.003-0-0.007-0-0.011-0-0.253 0-0.474 0.136-0.594 0.339l-0.002 0.003-3.381 5.92-3.381-5.92c-0.122-0.206-0.343-0.342-0.596-0.342-0.004 0-0.007 0-0.011 0h-8.998c-1.818-0.025-3.282-1.505-3.282-3.326 0-0.009 0-0.017 0-0.026v0.001-15.51c-0-0.007-0-0.015-0-0.023 0-1.82 1.465-3.297 3.28-3.318l0.002-0h25.853c1.817 0.021 3.282 1.498 3.282 3.318 0 0.008-0 0.016-0 0.024v-0.001z"></path>
</svg>
