<svg xmlns="http://www.w3.org/2000/svg" width="21.115" height="17.011" viewBox="0 0 21.115 17.011"><path id="Path_95" data-name="Path 95" d="M.462,0A.418.418,0,0,0,.043.375C-.064,1.6-.194,5.834,2.606,8.8c1.782,1.887,4.4,2.875,7.781,2.933v3.885a.384.384,0,0,0,.224.347.4.4,0,0,0,.419-.047l8.927-7.236a.378.378,0,0,0,0-.59L11.037.857A.4.4,0,0,0,10.61.8a.384.384,0,0,0-.227.356V5.114a.046.046,0,0,1-.04.046C9.151,5.368,4.93,5.629.8.179A.425.425,0,0,0,.462,0ZM10.956,11.179a.34.34,0,0,0-.238-.095c-3.35,0-5.912-.916-7.62-2.728A10.334,10.334,0,0,1,.67,1.079C4.9,6.294,9.211,6.02,10.461,5.8a.7.7,0,0,0,.593-.684V1.721l8.22,6.665-8.22,6.662V11.411A.321.321,0,0,0,10.956,11.179Z" transform="translate(20.598 16.511) rotate(180)" fill="#3d3d3d" stroke="#707070" stroke-width="1"/></svg>
