<!-- Generated by IcoMoon.io -->
<svg version="1.1" xmlns="http://www.w3.org/2000/svg" width="32" height="32" viewBox="0 0 32 32"><title>search-iocn</title><path stroke-linejoin="miter" stroke-linecap="butt" stroke-miterlimit="4" stroke-width="0.9636" stroke="#000" fill="#000" d="M22.715 21.040c1.794-2.156 2.882-4.953 2.882-8.005 0-6.934-5.622-12.556-12.556-12.556s-12.556 5.622-12.556 12.556c0 6.934 5.622 12.556 12.556 12.556 3.052 0 5.849-1.089 8.025-2.899l-0.020 0.017 8.594 8.609 1.679-1.679zM13.034 23.223c-5.627 0-10.189-4.562-10.189-10.189s4.562-10.189 10.189-10.189c5.627 0 10.188 4.561 10.189 10.187v0c-0.002 5.627-4.563 10.188-10.189 10.191h-0z"></path></svg>
