<!-- Generated by IcoMoon.io -->
<svg version="1.1" xmlns="http://www.w3.org/2000/svg" width="32" height="32" viewBox="0 0 32 32">
<title>icon</title>
<path d="M18.148 20.758c-0.075 0.047-0.163 0.085-0.256 0.108l-0.006 0.001c-0.513 0.185-1.105 0.292-1.722 0.292-2.887 0-5.228-2.34-5.228-5.228 0-2.044 1.173-3.814 2.883-4.674l0.030-0.014c0.075-0.048 0.162-0.085 0.254-0.108l0.006-0.001c0.506-0.129 1.089-0.205 1.688-0.208h0.002c0.039-0.001 0.085-0.002 0.131-0.002 2.107 0 3.917 1.274 4.701 3.093l0.013 0.033c0.242 0.586 0.383 1.267 0.383 1.981 0 2.047-1.156 3.823-2.851 4.712l-0.029 0.014zM31.212 18.704l-1.578-1.412c-0.16-0.144-0.261-0.351-0.263-0.581v-1.544c0-0.23 0.099-0.437 0.257-0.581l0.001-0.001 1.559-1.42c0.472-0.435 0.767-1.056 0.767-1.746 0-0.331-0.068-0.647-0.191-0.933l0.006 0.015-0.794-1.891c-0.367-0.859-1.204-1.451-2.18-1.451-0.046 0-0.092 0.001-0.137 0.004l0.006-0-2.167 0.121c-0.012 0.001-0.027 0.001-0.042 0.001-0.235 0-0.446-0.102-0.592-0.264l-0.001-0.001-1.034-1.164c-0.123-0.139-0.199-0.322-0.199-0.524 0-0.013 0-0.025 0.001-0.038l-0 0.002 0.096-2.036c0.002-0.032 0.002-0.069 0.002-0.107 0-0.985-0.6-1.829-1.454-2.187l-0.016-0.006-1.901-0.777c-0.264-0.111-0.571-0.175-0.894-0.175-0.7 0-1.328 0.303-1.762 0.785l-0.002 0.002-1.412 1.58c-0.144 0.16-0.351 0.26-0.582 0.262h-1.544c-0.23-0-0.437-0.099-0.581-0.257l-0.001-0.001-1.42-1.559c-0.435-0.472-1.056-0.767-1.746-0.767-0.331 0-0.647 0.068-0.933 0.191l0.015-0.006-1.891 0.794c-0.858 0.369-1.448 1.206-1.448 2.182 0 0.046 0.001 0.092 0.004 0.137l-0-0.006 0.116 2.115c0.001 0.013 0.001 0.028 0.001 0.044 0 0.218-0.088 0.415-0.231 0.557l-1.092 1.091c-0.138 0.143-0.331 0.231-0.545 0.231-0.017 0-0.034-0.001-0.051-0.002l-2.11-0.11c-0.030-0.001-0.066-0.002-0.102-0.002-0.985 0-1.83 0.6-2.19 1.454l-0.006 0.016-0.777 1.901c-0.111 0.264-0.175 0.571-0.175 0.894 0 0.7 0.303 1.328 0.785 1.762l0.002 0.002 1.578 1.412c0.16 0.144 0.26 0.351 0.262 0.582v1.544c-0.001 0.23-0.1 0.437-0.257 0.581l-0.001 0.001-1.558 1.42c-0.472 0.434-0.767 1.055-0.767 1.745 0 0.332 0.068 0.647 0.191 0.934l-0.006-0.015 0.794 1.891c0.366 0.859 1.204 1.451 2.179 1.451 0.047 0 0.094-0.001 0.14-0.004l-0.006 0 2.113-0.118c0.013-0.001 0.029-0.001 0.044-0.001 0.218 0 0.415 0.088 0.558 0.231v0l1.091 1.091c0.143 0.142 0.231 0.339 0.231 0.556 0 0.014-0 0.027-0.001 0.041l0-0.002-0.102 2.112c-0.002 0.032-0.002 0.070-0.002 0.108 0 0.984 0.6 1.828 1.454 2.186l0.016 0.006 1.901 0.777c0.265 0.111 0.572 0.175 0.895 0.175 0.7 0 1.329-0.303 1.762-0.786l0.002-0.002 1.412-1.578c0.144-0.16 0.351-0.26 0.582-0.262h1.544c0.23 0 0.437 0.099 0.581 0.257l0.001 0.001 1.42 1.559c0.435 0.472 1.056 0.766 1.746 0.766 0.331 0 0.646-0.068 0.933-0.19l-0.015 0.006 1.891-0.794c0.86-0.369 1.451-1.208 1.451-2.185 0-0.045-0.001-0.090-0.004-0.134l0 0.006-0.113-2.109c-0.001-0.013-0.001-0.029-0.001-0.045 0-0.218 0.088-0.415 0.231-0.558v0l1.091-1.092c0.139-0.143 0.334-0.231 0.549-0.231 0.016 0 0.031 0 0.047 0.001l-0.002-0 2.105 0.097c0.031 0.001 0.068 0.002 0.105 0.002 0.985 0 1.83-0.6 2.189-1.454l0.006-0.016 0.777-1.901c0.111-0.264 0.175-0.571 0.175-0.893 0-0.699-0.302-1.327-0.784-1.761l-0.002-0.002zM30.364 20.765l-0.777 1.901c-0.12 0.29-0.4 0.49-0.727 0.49-0.014 0-0.028-0-0.042-0.001l0.002 0-2.106-0.097c-0.029-0.001-0.063-0.002-0.098-0.002-0.657 0-1.253 0.265-1.686 0.693l-1.091 1.091c-0.428 0.428-0.693 1.020-0.693 1.674 0 0.046 0.001 0.091 0.004 0.136l-0-0.006 0.122 2.113c0.001 0.012 0.001 0.027 0.001 0.042 0 0.326-0.197 0.606-0.479 0.727l-0.005 0.002-1.891 0.794c-0.090 0.038-0.194 0.061-0.304 0.061-0.23 0-0.438-0.098-0.583-0.255l-0-0.001-1.42-1.559c-0.434-0.474-1.055-0.771-1.745-0.772h-1.544c-0.699 0.001-1.328 0.304-1.761 0.786l-0.002 0.002-1.412 1.578c-0.144 0.161-0.353 0.262-0.586 0.262-0.108 0-0.21-0.022-0.303-0.061l0.005 0.002-1.901-0.777c-0.29-0.121-0.491-0.403-0.491-0.731 0-0.012 0-0.025 0.001-0.037l-0 0.002 0.097-2.105c0.002-0.033 0.003-0.071 0.003-0.109 0-0.654-0.264-1.245-0.692-1.674l-1.091-1.091c-0.429-0.428-1.021-0.692-1.674-0.692h-0.129l-2.122 0.122c-0.016 0.001-0.035 0.002-0.055 0.002-0.322 0-0.599-0.198-0.714-0.478l-0.002-0.005-0.794-1.891c-0.038-0.090-0.061-0.194-0.061-0.304 0-0.231 0.099-0.438 0.256-0.583l0.001-0.001 1.559-1.42c0.474-0.434 0.77-1.055 0.772-1.745v-1.544c-0-0.699-0.304-1.328-0.786-1.761l-0.002-0.002-1.578-1.411c-0.161-0.145-0.262-0.355-0.262-0.588 0-0.107 0.021-0.21 0.060-0.303l-0.002 0.005 0.777-1.901c0.127-0.29 0.412-0.489 0.743-0.489 0.008 0 0.016 0 0.023 0l-0.001-0 2.106 0.099c0.032 0.002 0.070 0.002 0.108 0.002 0.654 0 1.245-0.265 1.674-0.693v0l1.092-1.091c0.427-0.427 0.692-1.017 0.692-1.669 0-0.047-0.001-0.094-0.004-0.141l0 0.006-0.119-2.125c-0.001-0.013-0.001-0.029-0.001-0.044 0-0.325 0.197-0.604 0.478-0.725l0.005-0.002 1.891-0.794c0.090-0.039 0.195-0.061 0.305-0.061 0.23 0 0.437 0.098 0.582 0.256l0.001 0.001 1.42 1.559c0.434 0.474 1.055 0.771 1.745 0.772h1.544c0.699-0.001 1.327-0.304 1.76-0.786l0.002-0.002 1.412-1.578c0.145-0.161 0.354-0.263 0.587-0.263 0.108 0 0.211 0.022 0.304 0.061l-0.005-0.002 1.901 0.777c0.29 0.121 0.491 0.402 0.491 0.73 0 0.013-0 0.026-0.001 0.038l0-0.002-0.095 2.036c-0.002 0.034-0.003 0.074-0.003 0.115 0 0.603 0.227 1.153 0.6 1.569l-0.002-0.002 1.034 1.164c0.436 0.489 1.068 0.795 1.772 0.795 0.045 0 0.090-0.001 0.134-0.004l-0.006 0 2.167-0.121c0.015-0.001 0.034-0.002 0.052-0.002 0.323 0 0.6 0.197 0.717 0.478l0.002 0.005 0.794 1.891c0.038 0.090 0.061 0.194 0.061 0.304 0 0.231-0.099 0.438-0.257 0.583l-0.001 0.001-1.558 1.42c-0.474 0.434-0.77 1.055-0.772 1.745v1.544c0 0 0 0 0 0 0 0.699 0.304 1.328 0.786 1.761l0.002 0.002 1.578 1.412c0.165 0.145 0.269 0.358 0.269 0.594 0 0.107-0.021 0.21-0.060 0.303l0.002-0.005zM13.747 9.6c-0.279 0.068-0.525 0.174-0.748 0.314l0.010-0.006c-2.165 1.198-3.607 3.468-3.607 6.075 0 0.928 0.183 1.813 0.514 2.621l-0.017-0.046c1.051 2.425 3.423 4.090 6.185 4.090 0.047 0 0.094-0 0.141-0.001l-0.007 0c0.724-0.003 1.426-0.093 2.097-0.26l-0.061 0.013c0.279-0.068 0.525-0.174 0.748-0.314l-0.010 0.006c2.18-1.162 3.638-3.42 3.638-6.019 0-3.755-3.044-6.799-6.799-6.799-0.742 0-1.456 0.119-2.124 0.338l0.048-0.014z"></path>
</svg>
