<!-- Generated by IcoMoon.io -->
<svg version="1.1" xmlns="http://www.w3.org/2000/svg" width="40" height="32" viewBox="0 0 40 32">
<title>share</title>
<path stroke-linejoin="miter" stroke-linecap="butt" stroke-miterlimit="4" stroke-width="1.8811" stroke="#000" fill="#000" d="M1.842 31.059c-0.002 0-0.004 0-0.006 0-0.406 0-0.74-0.307-0.782-0.702l-0-0.003c-0.201-2.304-0.448-10.269 4.819-15.843 3.352-3.55 8.277-5.408 14.637-5.517v-7.308c0.002-0.288 0.172-0.536 0.417-0.651l0.004-0.002c0.094-0.046 0.206-0.073 0.323-0.073 0.176 0 0.339 0.061 0.467 0.162l-0.002-0.001 16.793 13.612c0.163 0.131 0.266 0.331 0.266 0.555s-0.103 0.424-0.265 0.554l-0.001 0.001-16.778 13.601c-0.13 0.11-0.299 0.176-0.484 0.176-0.116 0-0.226-0.026-0.324-0.073l0.005 0.002c-0.254-0.116-0.427-0.367-0.427-0.659 0-0.004 0-0.007 0-0.011v0.001-7.44c0-0 0-0 0-0.001 0-0.044-0.033-0.080-0.075-0.086l-0-0c-2.242-0.393-10.183-0.882-17.946 9.368-0.145 0.203-0.379 0.334-0.643 0.337h-0zM21.582 10.030c-0.115 0.111-0.271 0.179-0.443 0.179-0.002 0-0.003 0-0.004 0h0c-6.302 0-11.121 1.723-14.334 5.132-2.861 3.364-4.6 7.757-4.6 12.558 0 0.398 0.012 0.793 0.036 1.185l-0.003-0.054c7.957-9.81 16.067-9.295 18.418-8.877 0.631 0.1 1.108 0.637 1.116 1.286v6.383l15.463-12.538-15.463-12.532v6.842c0 0.001 0 0.001 0 0.002 0 0.17-0.071 0.324-0.184 0.434l-0 0z"></path>
</svg>
