<!-- Generated by IcoMoon.io -->
<svg version="1.1" xmlns="http://www.w3.org/2000/svg" width="32" height="32" viewBox="0 0 32 32"><title>Smile</title><path stroke-linejoin="miter" stroke-linecap="butt" stroke-miterlimit="4" stroke-width="0.4305" stroke="#000" fill="#000" d="M11.009 9.847c-0.932 0-1.688 0.756-1.688 1.688s0.756 1.688 1.688 1.688c0.932 0 1.688-0.756 1.688-1.688v0c-0.007-0.929-0.758-1.68-1.687-1.688h-0.001z"></path><path stroke-linejoin="miter" stroke-linecap="butt" stroke-miterlimit="4" stroke-width="0.4305" stroke="#000" fill="#000" d="M20.991 9.847c-0.932 0-1.688 0.756-1.688 1.688s0.756 1.688 1.688 1.688c0.932 0 1.688-0.756 1.688-1.688v0c-0.007-0.929-0.758-1.68-1.687-1.688h-0.001z"></path><path stroke-linejoin="miter" stroke-linecap="butt" stroke-miterlimit="4" stroke-width="0.4305" stroke="#000" fill="#000" d="M16 0.215c-8.718 0-15.785 7.067-15.785 15.785s7.067 15.785 15.785 15.785c8.718 0 15.785-7.067 15.785-15.785v0c-0.007-8.715-7.070-15.777-15.784-15.785h-0.001zM16 2.144c7.653 0 13.856 6.204 13.856 13.856s-6.204 13.856-13.856 13.856c-7.653 0-13.856-6.204-13.856-13.856v0c0-0.007-0-0.016-0-0.024 0-7.639 6.193-13.832 13.832-13.832 0.009 0 0.017 0 0.026 0h-0.001z"></path><path stroke-linejoin="miter" stroke-linecap="butt" stroke-miterlimit="4" stroke-width="0.4305" stroke="#000" fill="#000" d="M23.65 21.011c0.139-0.167 0.224-0.383 0.224-0.619 0-0.535-0.434-0.969-0.969-0.969-0.015 0-0.030 0-0.045 0.001l0.002-0c-0.35 0.037-0.646 0.235-0.818 0.517l-0.003 0.005c-1.377 1.867-3.568 3.064-6.039 3.064s-4.662-1.197-6.025-3.044l-0.014-0.020c-0.174-0.287-0.471-0.485-0.816-0.522l-0.005-0c-0.013-0.001-0.028-0.001-0.043-0.001-0.535 0-0.969 0.434-0.969 0.969 0 0.236 0.085 0.453 0.225 0.621l-0.001-0.002c1.72 2.404 4.504 3.953 7.649 3.953s5.929-1.548 7.63-3.924l0.019-0.028z"></path></svg>
