<!-- Generated by IcoMoon.io -->
<svg version="1.1" xmlns="http://www.w3.org/2000/svg" width="29" height="32" viewBox="0 0 29 32">
<title>sorting-options</title>
<path stroke-linejoin="miter" stroke-linecap="butt" stroke-miterlimit="4" stroke-width="0.8205" stroke="#000" fill="#000" d="M26.248 16.955v0c-0.487 1.842-2.139 3.178-4.103 3.178s-3.615-1.336-4.096-3.148l-0.007-0.030h-16.656c-0.012 0.001-0.026 0.001-0.040 0.001-0.527 0-0.955-0.428-0.955-0.955s0.428-0.955 0.955-0.955c0.014 0 0.028 0 0.042 0.001l-0.002-0h16.653c0.487-1.842 2.139-3.178 4.103-3.178s3.615 1.336 4.096 3.148l0.007 0.030h1.090c0.012-0.001 0.026-0.001 0.040-0.001 0.527 0 0.955 0.428 0.955 0.955s-0.428 0.955-0.955 0.955c-0.014 0-0.028-0-0.042-0.001l0.002 0zM22.146 13.773c-1.211 0.024-2.184 1.012-2.184 2.226 0 1.23 0.997 2.227 2.227 2.227s2.227-0.997 2.227-2.226v-0c-0.014-1.233-1.017-2.227-2.251-2.227-0.007 0-0.014 0-0.021 0h0.001zM10.678 5.497v0c-0.487 1.842-2.139 3.178-4.103 3.178s-3.615-1.336-4.096-3.148l-0.007-0.030h-1.086c-0.012 0.001-0.026 0.001-0.040 0.001-0.527 0-0.955-0.428-0.955-0.955s0.428-0.955 0.955-0.955c0.014 0 0.028 0 0.042 0.001l-0.002-0h1.086c0.487-1.842 2.139-3.178 4.103-3.178s3.615 1.336 4.096 3.148l0.007 0.030h16.656c0.012-0.001 0.026-0.001 0.040-0.001 0.527 0 0.955 0.428 0.955 0.955s-0.428 0.955-0.955 0.955c-0.014 0-0.028-0-0.042-0.001l0.002 0zM6.576 2.316c-0.006-0-0.014-0-0.021-0-1.236 0-2.239 0.996-2.251 2.229v0.001c0.034 1.228 1.037 2.21 2.27 2.21s2.236-0.982 2.27-2.207l0-0.003c-0.014-1.233-1.017-2.227-2.251-2.227-0.006 0-0.013 0-0.019 0h0.001zM16.519 28.408v0c-0.487 1.842-2.139 3.178-4.103 3.178s-3.615-1.336-4.096-3.148l-0.007-0.030h-6.925c-0.012 0.001-0.026 0.001-0.040 0.001-0.527 0-0.955-0.428-0.955-0.955s0.428-0.955 0.955-0.955c0.014 0 0.028 0 0.042 0.001l-0.002-0h6.925c0.487-1.842 2.139-3.178 4.103-3.178s3.615 1.336 4.096 3.148l0.007 0.030h10.816c0.012-0.001 0.026-0.001 0.040-0.001 0.527 0 0.955 0.428 0.955 0.955s-0.428 0.955-0.955 0.955c-0.014 0-0.028-0-0.042-0.001l0.002 0zM12.416 25.226c-1.211 0.025-2.183 1.012-2.183 2.226 0 1.23 0.997 2.227 2.227 2.227s2.226-0.996 2.227-2.225v-0c-0.013-1.234-1.016-2.229-2.251-2.229-0.008 0-0.016 0-0.024 0h0.001z"></path>
</svg>
