<!-- Generated by IcoMoon.io -->
<svg version="1.1" xmlns="http://www.w3.org/2000/svg" width="32" height="32" viewBox="0 0 32 32"><title>tag-fnd</title><path stroke-linejoin="miter" stroke-linecap="butt" stroke-miterlimit="4" stroke-width="0.8496" stroke="#000" fill="#000" d="M31.575 30.758c-0.053 0.463-0.443 0.82-0.916 0.82s-0.863-0.356-0.916-0.816l-0-0.004c0-6.059-5.024-8.993-13.742-8.993s-13.742 2.935-13.742 8.993c-0.053 0.463-0.443 0.82-0.916 0.82s-0.863-0.356-0.916-0.816l-0-0.004c0-7.143 5.967-10.628 15.575-10.628s15.572 3.485 15.572 10.628zM16 17.012c-0.1 0.005-0.218 0.007-0.337 0.007-4.374 0-7.919-3.546-7.919-7.919 0-0.147 0.004-0.293 0.012-0.438l-0.001 0.020c-0.005-0.1-0.007-0.217-0.007-0.335 0-4.379 3.55-7.929 7.929-7.929 0.114 0 0.227 0.002 0.339 0.007l-0.016-0.001c0.096-0.004 0.209-0.007 0.323-0.007 4.379 0 7.929 3.55 7.929 7.929 0 0.118-0.003 0.236-0.008 0.353l0.001-0.017c0.007 0.124 0.011 0.27 0.011 0.416 0 4.374-3.546 7.919-7.919 7.919-0.118 0-0.236-0.003-0.353-0.008l0.017 0.001zM16 15.377c0.054 0.002 0.117 0.003 0.18 0.003 3.451 0 6.248-2.798 6.248-6.248 0-0.158-0.006-0.314-0.017-0.469l0.001 0.021c0.002-0.057 0.003-0.124 0.003-0.191 0-3.543-2.872-6.416-6.416-6.416s-6.416 2.872-6.416 6.416c0 0.067 0.001 0.134 0.003 0.2l-0-0.010c-0.010 0.135-0.016 0.292-0.016 0.45 0 3.451 2.798 6.248 6.248 6.248 0.063 0 0.127-0.001 0.19-0.003l-0.009 0z"></path></svg>
