<!-- Generated by IcoMoon.io -->
<svg version="1.1" xmlns="http://www.w3.org/2000/svg" width="43" height="32" viewBox="0 0 43 32"><title>video</title><path stroke-linejoin="miter" stroke-linecap="butt" stroke-miterlimit="4" stroke-width="1.1371" stroke="#000" fill="#000" d="M41.358 7.708c-0.369-0.202-0.808-0.32-1.274-0.32-0.569 0-1.097 0.176-1.532 0.477l0.009-0.006-4.462 3.039v-3.062c0-0.004 0-0.010 0-0.015 0-3.992-3.226-7.231-7.213-7.253h-19.093c-3.993 0.017-7.224 3.257-7.224 7.253 0 0.005 0 0.010 0 0.016v-0.001 16.328c0 0.004 0 0.009 0 0.015 0 3.995 3.231 7.236 7.222 7.253h19.093c3.993-0.017 7.224-3.257 7.224-7.253 0-0.005 0-0.010-0-0.015v0.001-3.062l4.462 3.039c0.426 0.295 0.954 0.471 1.523 0.471 0.467 0 0.906-0.118 1.288-0.327l-0.014 0.007c0.861-0.471 1.436-1.371 1.436-2.405 0-0.004 0-0.007-0-0.011v0.001-11.754c0-0.002 0-0.004 0-0.006 0-1.037-0.578-1.94-1.43-2.402l-0.014-0.007zM41.178 21.877c0 0.002 0 0.004 0 0.006 0 0.604-0.489 1.093-1.093 1.093-0.229 0-0.441-0.070-0.616-0.19l0.004 0.002-6.998-4.766v6.142c0 0.003 0 0.006 0 0.010 0 3.094-2.499 5.604-5.589 5.622h-19.093c-3.095-0.013-5.599-2.525-5.599-5.622 0-0.003 0-0.007 0-0.010v0.001-16.328c0-0.003 0-0.007 0-0.011 0-3.097 2.504-5.609 5.598-5.622h19.092c3.095 0.013 5.599 2.525 5.599 5.622 0 0.004 0 0.008 0 0.012v-0.001 6.142l6.998-4.766c0.17-0.114 0.379-0.182 0.604-0.182 0.604 0 1.093 0.489 1.093 1.093 0 0 0 0 0 0v0z"></path></svg>
