<svg xmlns="http://www.w3.org/2000/svg" width="21.61" height="28.681" viewBox="0 0 21.61 28.681"><g id="voice" transform="translate(0.201 0.2)"><g id="_24-voices" data-name="24-voices"><path id="Path_260" data-name="Path 260" d="M16.576,26.86H12.634A8.617,8.617,0,0,1,4,18.252V15.3H5.5v2.952a7.141,7.141,0,0,0,7.132,7.132h3.933A7.141,7.141,0,0,0,23.7,18.252V15.3h1.511v2.952a8.617,8.617,0,0,1-8.634,8.608Z" transform="translate(-4 -1.778)" fill="#d3d8e0" stroke="#d3d8e0" stroke-width="0.4"/><path id="Path_261" data-name="Path 261" d="M15.979,22.094H14.017A6.646,6.646,0,0,1,7.38,15.457V6.619A6.646,6.646,0,0,1,14.017,0h1.971a6.646,6.646,0,0,1,6.637,6.637v8.838a6.646,6.646,0,0,1-6.646,6.619ZM14.017,1.476A5.17,5.17,0,0,0,8.812,6.637v8.838a5.17,5.17,0,0,0,5.161,5.161h1.971a5.17,5.17,0,0,0,5.241-5.144V6.655a5.17,5.17,0,0,0-5.161-5.161Z" transform="translate(-4.393)" fill="#d3d8e0" stroke="#d3d8e0" stroke-width="0.4"/><rect id="Rectangle_162" data-name="Rectangle 162" width="1.476" height="3.933" transform="translate(9.872 24.348)" fill="#d3d8e0" stroke="#d3d8e0" stroke-width="0.4"/></g></g></svg>
